<?xml version="1.0" encoding="utf-8"?>
<!-- Copyright 2024 COEZBAY® Please note that COEZBAY® is a registered trademark. -->
<svg version="1.1" xmlns="http://www.w3.org/2000/svg" width="150" height="20"
     viewBox="0 0 4500 200" xml:space="preserve">
<style type="text/css">
    .st0{fill:url(#gradient);}
        .text { font: bold 260px sans-serif; fill: #FFFFFF; }
            .sup { font-size: 12px; baseline-shift: super; }
</style>
    <defs>
    <linearGradient id="gradient" x1="0%" y1="0%" x2="0%" y2="100%">
        <stop offset="0%" style="stop-color:green;"/> <!-- Green -->
        <stop offset="33%" style="stop-color:yellow;"/> <!-- Yellow -->
        <stop offset="66%" style="stop-color:red;"/> <!-- Red -->
        <stop offset="100%" style="stop-color:blue;"/> <!-- Blue -->
    </linearGradient>
</defs>
    <path class="st0"
          d="M148.1,0C66.4,0,0,66.4,0,148s66.4,148.1,148.1,148.1s148.1-66.4,148.1-148.1S229.7,0,148.1,0z M258.7,158.4 c-9.2,5.2-12.5,6.4-18.6-0.1c-0.9-1-1.9-1.9-3-2.8c-2.5-0.6-5-1.7-7.2-3c-0.4-0.3-0.8-0.6-1-1l-4-3.4c-3.9-2-7.9-3.8-11.5-6.1 c-10.5-6.5-12.6-5.5-22.3-9.8c-4.8-5.4-8.8-9.9-13.6-15.4h0.1c-7.7-3.2-13.4-9.9-15.3-18c-5.8,5.4-13.3,14.7-13.3,26.3 c0,17.3,112.5,41.8,92.8,116.1c-15.8,15.9-35.3,27.5-56.7,33.8c10.8-9.4,15.6-23.8,8.9-42.7c-11.4-32.2-49.3-23.3-69-46.2 c-15.8-18.3-20.3-31.4-20.3-31.4s-1.4,10.7,3.6,26.5c6.7,21,22.5,24.3,22.5,24.3c-12,4.5-44.2-11.6-55.6-20.9 c-21-17.1-34-40.8-34-67c0-50.8,45.2-94.1,106.3-94.1c60.5,0-59.1,48.5-59.1,48.5c63.8-9.7,89.6-29.8,90.7-45.1l9.8,6 c0,0,2-0.8,12.6-1.9c2.3-0.3,4.5-0.4,6.8-0.4c2.2,1.2,4.5,2.4,6.6,3.7c-1.1,3.3-7.1,8.1-9.3,11.6c-1,1.6,6.3,7.4,6.3,7.4 c19.8,21.5,60.2,84.3,60.3,87.7c-0.2,3.8-4,4.9-4,7.6C268.2,155.5,265.6,154.5,258.7,158.4z"/>
    <text x="400" y="240" class="text">Copyright 2024 COEZBAY ®</text>
</svg>